<svg width="12" height="11" viewBox="0 0 12 11" fill="none" xmlns="http://www.w3.org/2000/svg">
<path d="M11.25 5.50024C11.2512 5.65405 11.2044 5.80442 11.1162 5.93043C11.028 6.05644 10.9027 6.15184 10.7578 6.20337L7.78406 7.28477L6.70312 10.2581C6.64984 10.4016 6.55392 10.5254 6.42823 10.6128C6.30253 10.7002 6.1531 10.7471 6 10.7471C5.8469 10.7471 5.69746 10.7002 5.57177 10.6128C5.44608 10.5254 5.35015 10.4016 5.29687 10.2581L4.21547 7.28149L1.24218 6.20337C1.09865 6.15009 0.974862 6.05416 0.887446 5.92847C0.800029 5.80278 0.753174 5.65334 0.753174 5.50024C0.753174 5.34714 0.800029 5.19771 0.887446 5.07201C0.974862 4.94632 1.09865 4.85039 1.24218 4.79712L4.21875 3.71571L5.29687 0.742429C5.35015 0.598896 5.44608 0.475107 5.57177 0.38769C5.69746 0.300274 5.8469 0.253418 6 0.253418C6.1531 0.253418 6.30253 0.300274 6.42823 0.38769C6.55392 0.475107 6.64984 0.598896 6.70312 0.742429L7.78453 3.71899L10.7578 4.79712C10.9027 4.84864 11.028 4.94404 11.1162 5.07006C11.2044 5.19607 11.2512 5.34643 11.25 5.50024Z" fill="#4B4B4B"/>
</svg>
